<?xml version="1.0" standalone="no"?>
<!DOCTYPE svg PUBLIC "-//W3C//DTD SVG 1.1//EN" "http://www.w3.org/Graphics/SVG/1.1/DTD/svg11.dtd" >
<svg xmlns="http://www.w3.org/2000/svg">
<metadata>Generated by IcoMoon</metadata>
<defs>
<font id="icomoon" horiz-adv-x="1024">
<font-face units-per-em="1024" ascent="960" descent="-64" />
<missing-glyph horiz-adv-x="1024" />
<glyph unicode="&#x20;" horiz-adv-x="512" d="" />
<glyph unicode="&#xe900;" glyph-name="add-person" d="M640 448c94.251 0 170.656 76.405 170.656 170.656s-76.405 170.656-170.656 170.656c-94.251 0-170.656-76.405-170.656-170.656v0c0-0.010 0-0.021 0-0.032 0-94.233 76.391-170.624 170.624-170.624 0.011 0 0.023 0 0.034 0h-0.002zM256 533.344v128h-85.344v-128h-128v-85.344h128v-128h85.344v128h128v85.344zM640 362.688c-113.92 0-341.344-57.184-341.344-170.688v-85.344h682.656v85.344c0 113.504-227.392 170.688-341.312 170.688z" />
<glyph unicode="&#xe901;" glyph-name="visibility" d="M512 767.552c-211.999-0.050-393.433-130.859-468.042-316.161l-1.206-3.391c75.77-188.721 257.222-319.551 469.232-319.551s393.462 130.83 468.027 316.16l1.205 3.391c-75.811 188.683-257.23 319.488-469.208 319.552h-0.008zM512 234.944c-117.571 0.128-212.832 95.467-212.832 213.056 0 117.668 95.388 213.056 213.056 213.056s213.056-95.388 213.056-213.056v0c-0.109-117.691-95.542-213.056-213.248-213.056-0.011 0-0.023 0-0.034 0h0.002zM512 575.808c-70.535-0.091-127.68-57.292-127.68-127.84 0-70.604 57.236-127.84 127.84-127.84s127.84 57.236 127.84 127.84v0c0 0.029 0 0.062 0 0.096 0 70.551-57.193 127.744-127.744 127.744-0.090 0-0.18 0-0.27 0h0.014z" />
<glyph unicode="&#xe902;" glyph-name="unarchive" d="M876.8 737.28l-59.296 71.68c-11.89 14.126-29.582 23.040-49.356 23.040-0.052 0-0.104 0-0.156 0h-511.992c-0.158 0.001-0.344 0.002-0.53 0.002-19.606 0-37.085-9.113-48.43-23.334l-0.096-0.125-59.328-71.264c-12.205-14.575-19.617-33.526-19.617-54.208 0-0.146 0-0.293 0.001-0.439v0.023-533.312c0-0.009 0-0.021 0-0.032 0-47.117 38.195-85.312 85.312-85.312 0.011 0 0.023 0 0.034 0h597.31c47.076 0.145 85.199 38.268 85.344 85.33v533.326c0 0.057 0 0.126 0 0.194 0 20.687-7.241 39.684-19.327 54.592l0.127-0.162zM512 554.656l234.656-234.656h-149.312v-85.344h-170.688v85.344h-149.312zM218.464 746.656l34.976 42.688h512l39.68-42.656z" />
<glyph unicode="&#xe903;" glyph-name="archive" d="M852.096 717.6l-55.296 66.912c-10.679 13.387-26.99 21.891-45.288 21.891-0.2 0-0.399-0.001-0.598-0.003h-477.858c-0.073 0-0.16 0.001-0.246 0.001-18.502 0-35.022-8.488-45.878-21.782l-0.084-0.106-54.944-66.912c-11.385-13.465-18.305-31.024-18.305-50.199 0-0.138 0-0.276 0.001-0.414v0.021-497.76c0.199-43.908 35.74-79.449 79.629-79.648h557.523c43.908 0.199 79.449 35.74 79.648 79.629v497.779c0.001 0.117 0.001 0.255 0.001 0.393 0 19.175-6.92 36.733-18.4 50.314l0.095-0.115zM512 228.992l-219.008 219.008h139.392v79.648h159.296v-79.648h139.392zM238.016 726.752l32.256 39.84h477.888l37.44-39.808z" />
<glyph unicode="&#xe904;" glyph-name="delete" d="M292.576 169.248c-0.036-0.874-0.056-1.901-0.056-2.932 0-41.152 32.367-74.744 73.032-76.709l0.176-0.007h292.576c40.841 1.971 73.208 35.564 73.208 76.716 0 1.031-0.020 2.058-0.061 3.079l0.005-0.147v477.856h-438.88zM382.528 452.768l51.584 56.032 77.888-84.288 77.536 84.288 51.552-56.16-77.536-84.416 77.536-84.416-51.552-56.16-77.536 84.544-77.536-84.416-51.552 56.16 77.536 84.416zM640 766.592l-36.576 39.808h-182.848l-36.576-39.808h-128v-79.648h512v79.648z" />
<glyph unicode="&#xe905;" glyph-name="copy" d="M670.976 806.4h-355.68c-33.149-1.789-59.351-29.104-59.351-62.538 0-0.919 0.020-1.834 0.059-2.743l-0.004 0.13v-456.16h59.296v456.16h355.68zM641.344 676.064l177.856-195.488v-325.824c0.035-0.78 0.055-1.694 0.055-2.614 0-33.435-26.202-60.75-59.192-62.532l-0.158-0.007h-326.336c-32.984 1.816-59.042 29.004-59.042 62.279 0 1.010 0.024 2.015 0.072 3.014l-0.005-0.141 0.288 456.16c-0.042 0.858-0.066 1.862-0.066 2.873 0 33.275 26.059 60.464 58.882 62.272l0.16 0.007zM611.712 448h163.040l-163.040 179.2z" />
<glyph unicode="&#xe906;" glyph-name="loader" d="M512 801.76v132.64l-204.8-176.864 204.8-176.864v132.64c169.6 0 307.2-118.944 307.2-265.312-0.016-45.922-13.369-88.722-36.397-124.74l0.557 0.932 74.752-64.544c39.262 51.824 63.047 117.268 63.487 188.249l0.001 0.103c0 195.456-183.296 353.76-409.6 353.76zM512 182.72c-169.6 0-307.2 118.944-307.2 265.312 0.016 45.922 13.369 88.722 36.397 124.74l-0.557-0.932-74.752 64.544c-39.269-51.832-63.054-117.289-63.488-188.283v-0.101c0-195.456 183.296-353.76 409.6-353.76v-132.64l204.8 176.864-204.8 176.864z" />
<glyph unicode="&#xe907;" glyph-name="share" d="M768 273.92c-32.315-0.153-61.69-12.618-83.7-32.941l0.084 0.077-304.224 177.056c2.233 8.893 3.62 19.158 3.838 29.71l0.002 0.146c-0.22 10.698-1.607 20.963-4.040 30.815l0.2-0.959 300.8 175.36c22.705-21.063 53.219-33.986 86.752-33.986 70.533 0 127.712 57.179 127.712 127.712s-57.179 127.712-127.712 127.712c-70.533 0-127.712-57.179-127.712-127.712 0-0.089 0-0.178 0-0.267v0.014c0.22-10.698 1.607-20.963 4.040-30.815l-0.2 0.959-300.8-175.36c-22.824 21.409-53.617 34.56-87.481 34.56-70.692 0-128-57.308-128-128s57.308-128 128-128c33.865 0 64.657 13.151 87.55 34.624l-0.069-0.064 303.776-177.504c-2.114-8.311-3.359-17.867-3.424-27.702v-0.042c0.018-68.788 55.786-124.544 124.576-124.544 68.801 0 124.576 55.775 124.576 124.576 0 68.79-55.756 124.558-124.542 124.576h-0.002z" />
<glyph unicode="&#xe908;" glyph-name="grid" d="M128 470.976h225.888v275.68h-225.888zM128 149.312h225.888v275.712h-225.888zM399.072 149.312h225.888v275.712h-225.888zM670.144 149.312h225.856v275.712h-225.888zM399.072 470.976h225.888v275.68h-225.888zM670.112 746.656v-275.68h225.888v275.68z" />
<glyph unicode="&#xe909;" glyph-name="list" d="M170.656 362.656h170.656v170.656h-170.656zM170.656 149.312h170.656v170.688h-170.656zM170.656 576h170.656v170.656h-170.656zM384 362.656h512v170.656h-512zM384 149.312h512v170.688h-512zM384 746.656v-170.656h512v170.656z" />
<glyph unicode="&#xe90a;" glyph-name="checked" d="M512 846.208c-219.91-0.018-398.176-178.295-398.176-398.208 0-219.924 178.284-398.208 398.208-398.208s398.208 178.284 398.208 398.208v0c-0.091 219.899-178.339 398.135-398.233 398.208h-0.007zM512 129.408c-175.954 0-318.592 142.638-318.592 318.592s142.638 318.592 318.592 318.592c175.954 0 318.592-142.638 318.592-318.592v0c-0.237-175.859-142.734-318.356-318.57-318.592h-0.022zM694.784 624l-262.4-262.4-103.168 102.72-56.128-56.16 159.296-159.296 318.592 318.592z" />
<glyph unicode="&#xe90b;" glyph-name="filter" d="M426.656 192h170.656v85.344h-170.656zM128 704v-85.344h768v85.344zM256 405.344h512v85.312h-512z" />
<glyph unicode="&#xe90c;" glyph-name="workspace" d="M839.104 789.344h-640c-39.219-0.127-70.977-31.886-71.104-71.092v-426.7c0.127-39.219 31.886-70.977 71.092-71.104h248.908v-71.104h-71.104v-71.104h284.448v71.104h-71.136v71.104h248.896c39.219 0.127 70.977 31.886 71.104 71.092v426.7c-0.127 39.219-31.886 70.977-71.092 71.104h-0.012zM839.104 291.552h-640v426.688h640z" />
<glyph unicode="&#xe90d;" glyph-name="cancel" d="M512 832c-212.077 0-384-171.923-384-384s171.923-384 384-384c212.077 0 384 171.923 384 384v0c0 0.105 0 0.228 0 0.352 0 211.883-171.765 383.648-383.648 383.648-0.124 0-0.248 0-0.371 0h0.019zM512 140.8c-169.662 0-307.2 137.538-307.2 307.2s137.538 307.2 307.2 307.2c169.662 0 307.2-137.538 307.2-307.2v0c-0.236-169.566-137.633-306.963-307.177-307.2h-0.023zM649.856 640l-137.856-137.856-137.856 137.856-54.144-54.144 137.856-137.856-137.856-137.856 54.144-54.144 137.856 137.856 137.856-137.856 54.144 54.144-137.856 137.856 137.856 137.856z" />
<glyph unicode="&#xe90e;" glyph-name="save" d="M725.344 832h-512c-0.009 0-0.021 0-0.032 0-47.117 0-85.312-38.195-85.312-85.312 0-0.011 0-0.023 0-0.034v0.002-597.312c0-0.009 0-0.021 0-0.032 0-47.117 38.195-85.312 85.312-85.312 0.011 0 0.023 0 0.034 0h597.31c47.076 0.145 85.199 38.268 85.344 85.33v512.014zM512 149.344c-70.692 0-128 57.308-128 128s57.308 128 128 128c70.692 0 128-57.308 128-128v0c0-0.047 0-0.104 0-0.16 0-70.604-57.236-127.84-127.84-127.84-0.056 0-0.112 0-0.169 0h0.009zM640 576h-426.656v170.656h426.656z" />
<glyph unicode="&#xe90f;" glyph-name="edit" d="M256 294.368v-102.4h102.4l307.2 307.2-102.4 102.4zM768 601.568c5.203 7.084 8.326 15.977 8.326 25.6s-3.123 18.516-8.411 25.721l0.085-0.121-51.2 51.2c-7.084 5.203-15.977 8.326-25.6 8.326s-18.516-3.123-25.721-8.411l0.121 0.085-51.2-51.2 102.4-102.4z" />
<glyph unicode="&#xe910;" glyph-name="settings" d="M816.64 408.064c1.572 11.937 2.5 25.797 2.56 39.861v0.075c-0.008 14.107-1.171 27.936-3.401 41.405l0.201-1.469 86.4 67.584c4.645 3.906 7.576 9.721 7.576 16.22 0 3.619-0.909 7.026-2.511 10.005l0.055-0.113-81.92 141.824c-3.666 6.284-10.375 10.439-18.054 10.439-2.523 0-4.94-0.448-7.178-1.27l0.145 0.046-101.888-40.96c-19.95 15.531-42.725 28.935-67.145 39.199l-1.975 0.737-15.36 108.544c-1.531 9.91-10 17.408-20.221 17.408-0.001 0-0.002 0-0.003 0h-163.84c-0.057 0.001-0.125 0.001-0.193 0.001-10.119 0-18.478-7.54-19.764-17.308l-0.011-0.101-15.456-108.544c-26.39-11.106-49.155-24.5-69.834-40.466l0.714 0.53-101.792 41.088c-2.164 0.86-4.671 1.359-7.295 1.359-7.638 0-14.289-4.228-17.74-10.471l-0.053-0.104-81.92-141.824c-1.782-2.917-2.837-6.448-2.837-10.224 0-6.478 3.105-12.231 7.907-15.852l0.050-0.036 86.4-67.584c-2.29-12.484-3.6-26.85-3.6-41.523 0-13.586 1.123-26.911 3.281-39.885l-0.193 1.407-86.4-67.584c-4.645-3.906-7.576-9.721-7.576-16.22 0-3.619 0.909-7.026 2.511-10.005l-0.055 0.113 81.92-141.824c3.666-6.284 10.375-10.439 18.054-10.439 2.523 0 4.94 0.448 7.178 1.27l-0.145-0.046 101.888 40.96c19.95-15.531 42.725-28.935 67.145-39.199l1.975-0.737 15.36-108.544c1.698-9.916 10.213-17.373 20.476-17.408h163.844c0.159-0.005 0.346-0.007 0.533-0.007 10.046 0 18.322 7.576 19.427 17.326l0.008 0.089 15.36 108.544c26.39 11.106 49.155 24.5 69.834 40.466l-0.714-0.53 101.888-40.96c2.164-0.86 4.671-1.359 7.295-1.359 7.638 0 14.289 4.228 17.74 10.471l0.053 0.104 81.92 141.824c1.782 2.917 2.837 6.448 2.837 10.224 0 6.478-3.105 12.231-7.907 15.852l-0.050 0.036-85.504 67.584zM512 294.4c-84.831 0-153.6 68.769-153.6 153.6s68.769 153.6 153.6 153.6c84.831 0 153.6-68.769 153.6-153.6v0c-0.254-84.729-68.871-153.346-153.576-153.6h-0.024z" />
<glyph unicode="&#xe911;" glyph-name="bellbadge" d="M512.032 75.616c-51.389 0.055-93.033 41.699-93.088 93.083v0.005h186.176c-0.055-51.389-41.699-93.033-93.083-93.088h-0.005zM837.856 215.264h-651.648c-0.768-0.048-1.667-0.075-2.571-0.075-24.336 0-44.064 19.728-44.064 44.064 0 0.905 0.027 1.803 0.081 2.694l-0.006-0.123c-0.047 0.758-0.073 1.645-0.073 2.537 0 24.336 19.728 44.064 44.064 44.064 0.893 0 1.779-0.027 2.658-0.079l-0.121 0.006h46.528c29.283 32.994 47.168 76.679 47.168 124.541 0 5.317-0.221 10.583-0.654 15.789l0.046-0.682v139.616c-0.008 0.708-0.012 1.543-0.012 2.38 0 127.246 103.154 230.4 230.4 230.4 0.837 0 1.673-0.004 2.508-0.013l-0.128 0.001c0.252 0.001 0.551 0.002 0.849 0.002 27.571 0 54.048-4.688 78.676-13.31l-1.669 0.509c-1.426-10.097-2.24-21.76-2.24-33.613 0-0.007 0-0.013 0-0.020v0.001c0-0.147 0-0.321 0-0.495 0-52.821 16.462-101.796 44.536-142.076l-0.535 0.811c27.918-40.285 66.366-71.483 111.389-89.924l1.667-0.604v-93.664c0-51.488 44.512-93.504 77.024-124.16 5.792-5.472 11.232-10.624 16-15.456 0.758 0.047 1.645 0.073 2.537 0.073 24.336 0 44.064-19.728 44.064-44.064 0-0.893-0.027-1.779-0.079-2.658l0.006 0.121c0.047-0.766 0.075-1.661 0.075-2.562 0-24.336-19.728-44.064-44.064-44.064-0.848 0-1.69 0.024-2.526 0.071l0.116-0.005zM837.824 960c102.822 0 186.176-83.354 186.176-186.176s-83.354-186.176-186.176-186.176c-102.822 0-186.176 83.354-186.176 186.176v0c0 102.822 83.354 186.176 186.176 186.176v0z" />
<glyph unicode="&#xe912;" glyph-name="downchev" d="M316.16 593.504l-60.16-60.16 256-256 256 256-60.16 60.16-195.84-195.424z" />
<glyph unicode="&#xe913;" glyph-name="bell" d="M418.944 168.704h186.176c0-51.411-41.677-93.088-93.088-93.088s-93.088 41.677-93.088 93.088v0zM186.176 215.264c-25.706 0-46.544 20.838-46.544 46.544s20.838 46.544 46.544 46.544h46.56c29.263 32.989 47.136 76.66 47.136 124.505 0 5.319-0.221 10.586-0.654 15.793l0.046-0.682v139.648c-0.008 0.698-0.012 1.523-0.012 2.348 0 127.246 103.154 230.4 230.4 230.4 0.837 0 1.672-0.004 2.507-0.013l-0.127 0.001c0.688 0.007 1.502 0.012 2.316 0.012 127.246 0 230.4-103.154 230.4-230.4 0-0.826-0.004-1.65-0.013-2.474l0.001 0.126v-139.616c0-60.48 60.544-107.040 93.12-139.616 25.706 0 46.544-20.838 46.544-46.544s-20.838-46.544-46.544-46.544v0z" />
<glyph unicode="&#xe914;" glyph-name="notification" d="M512 820.352c-205.63-0.018-372.32-166.719-372.32-372.352 0-205.644 166.708-372.352 372.352-372.352s372.352 166.708 372.352 372.352v0c-0.635 205.4-166.982 371.736-372.325 372.352h-0.059zM512 261.792c-0.79-0.051-1.712-0.079-2.641-0.079-24.283 0-43.968 19.685-43.968 43.968 0 0.94 0.029 1.873 0.088 2.798l-0.006-0.127c-0.052 0.799-0.081 1.733-0.081 2.673 0 24.283 19.685 43.968 43.968 43.968 0.941 0 1.874-0.030 2.8-0.088l-0.127 0.006c0.79 0.051 1.712 0.079 2.641 0.079 24.283 0 43.968-19.685 43.968-43.968 0-0.94-0.029-1.873-0.088-2.798l0.006 0.127c0.052-0.799 0.081-1.733 0.081-2.673 0-24.283-19.685-43.968-43.968-43.968-0.941 0-1.874 0.030-2.8 0.088l0.127-0.006zM558.56 401.44h-93.088v232.736h93.088z" />
<glyph unicode="&#xe915;" glyph-name="camera" d="M186.272 75.68c-50.097 3.237-89.929 43.058-93.169 92.857l-0.015 0.295v512c0 46.72 46.112 46.56 93.184 46.56h139.552l46.592 92.96h279.264l46.624-92.96h139.552c47.008 0 93.184 0.256 93.184-46.56v-512c-3.269-50.088-43.093-89.901-92.889-93.137l-0.295-0.015zM279.072 401.568c7.787-125.251 107.424-224.9 231.962-232.669l0.71-0.035c125.275 7.772 224.946 107.432 232.701 231.995l0.035 0.709c-7.863 125.233-107.496 224.844-232.024 232.636l-0.712 0.036c-125.169-7.925-224.707-107.519-232.508-231.991l-0.036-0.713zM372.256 401.568c0.091 77.039 62.564 139.456 139.616 139.456 77.108 0 139.616-62.508 139.616-139.616s-62.508-139.616-139.616-139.616c-0.045 0-0.090 0-0.135 0h0.007c-76.968 0.091-139.328 62.507-139.328 139.488 0 0.090 0 0.18 0 0.27v-0.014z" />
<glyph unicode="&#xe916;" glyph-name="help" d="M512 820.352c-205.63-0.018-372.32-166.719-372.32-372.352 0-205.644 166.708-372.352 372.352-372.352s372.352 166.708 372.352 372.352v0c-0.635 205.4-166.982 371.736-372.325 372.352h-0.059zM512 354.912c-51.411 0-93.088 41.677-93.088 93.088s41.677 93.088 93.088 93.088c51.411 0 93.088-41.677 93.088-93.088v0c-0.163-51.345-41.743-92.925-93.072-93.088h-0.016zM512 727.264c52.206-6.845 99.387-23.284 141.494-47.54l-1.846 0.98-93.088-46.528c-13.909 4.58-29.918 7.222-46.544 7.222s-32.635-2.642-47.631-7.528l1.087 0.306-93.088 46.528c40.252 23.273 87.421 39.71 137.681 46.351l1.935 0.209zM232.736 448c6.85 52.195 23.287 99.364 47.54 141.462l-0.98-1.846 46.56-93.088c-4.58-13.909-7.222-29.918-7.222-46.544s2.642-32.635 7.528-47.631l-0.306 1.087-46.56-93.088c-23.276 40.261-39.715 87.442-46.351 137.713l-0.209 1.935zM512 168.736c-52.206 6.845-99.387 23.284-141.494 47.54l1.846-0.98 93.088 46.56c13.909-4.58 29.918-7.222 46.544-7.222s32.635 2.642 47.631 7.528l-1.087-0.306 93.12-46.592c-40.261-23.276-87.442-39.715-137.713-46.351l-1.935-0.209zM744.736 308.352l-46.56 93.088c4.58 13.909 7.222 29.918 7.222 46.544s-2.642 32.635-7.528 47.631l0.306-1.087 46.56 93.088c23.276-40.261 39.715-87.442 46.351-137.713l0.209-1.935c-6.85-52.195-23.287-99.364-47.54-141.462l0.98 1.846z" />
<glyph unicode="&#xe917;" glyph-name="add" d="M563.2 652.8h-102.4v-153.6h-153.6v-102.4h153.6v-153.6h102.4v153.6h153.6v102.4h-153.6zM512 857.6c-226.216 0-409.6-183.384-409.6-409.6s183.384-409.6 409.6-409.6c226.216 0 409.6 183.384 409.6 409.6v0c0 226.216-183.384 409.6-409.6 409.6v0zM512 140.8c-3.977-0.192-8.639-0.302-13.326-0.302-162.469 0-294.176 131.707-294.176 294.176 0 4.687 0.11 9.348 0.326 13.981l-0.024-0.655c-0.192 3.977-0.302 8.639-0.302 13.326 0 162.469 131.707 294.176 294.176 294.176 4.687 0 9.348-0.11 13.981-0.326l-0.655 0.024c3.977 0.192 8.639 0.302 13.326 0.302 162.469 0 294.176-131.707 294.176-294.176 0-4.687-0.11-9.348-0.326-13.981l0.024 0.655c0.192-3.977 0.302-8.639 0.302-13.326 0-162.469-131.707-294.176-294.176-294.176-4.687 0-9.348 0.11-13.981 0.326l0.655-0.024z" />
<glyph unicode="&#xe918;" glyph-name="more" d="M512 618.688c47.134 0 85.344 38.21 85.344 85.344s-38.21 85.344-85.344 85.344c-47.134 0-85.344-38.21-85.344-85.344 0-0.011 0-0.023 0-0.034v0.002c0.163-47.062 38.279-85.167 85.33-85.312h0.014zM512 533.344c-47.134 0-85.344-38.21-85.344-85.344s38.21-85.344 85.344-85.344c47.134 0 85.344 38.21 85.344 85.344v0c-0.145 47.076-38.268 85.199-85.33 85.344h-0.014zM512 277.344c-47.134 0-85.344-38.21-85.344-85.344s38.21-85.344 85.344-85.344c47.134 0 85.344 38.21 85.344 85.344v0c-0.145 47.076-38.268 85.199-85.33 85.344h-0.014z" />
</font>
</defs>
</svg>
