<svg xmlns="http://www.w3.org/2000/svg" viewBox="0 0 160 40"><defs><style>.a{fill:#fff;}.b{fill:none;}</style></defs><g transform="translate(16 7)"><path class="a" d="M161.126,32.918a1.062,1.062,0,0,1-.074.406l-4.514,10.79a1.07,1.07,0,0,1-1.981,0l-1.424-3.425-1.443,3.425a1.07,1.07,0,0,1-1.978,0l-4.517-10.79a1.062,1.062,0,0,1-.074-.406,1.1,1.1,0,0,1,1.1-1.1,1.062,1.062,0,0,1,.982.667l3.515,8.4,1.24-3.018-1.893-4.544a1.056,1.056,0,0,1-.093-.425,1.078,1.078,0,0,1,1.1-1.073.971.971,0,0,1,.98.667l1.1,2.59,1.073-2.59a1.062,1.062,0,0,1,.982-.667,1.1,1.1,0,0,1,1.1,1.1,1.059,1.059,0,0,1-.071.406L154.3,37.882l1.26,3.018,3.49-8.408a1.078,1.078,0,0,1,2.072.425Z" transform="translate(-105.298 -23.088)"/><path class="a" d="M209.788,55.138a1.1,1.1,0,0,1-1.073,1.062,1.056,1.056,0,0,1-.963-.593,4.561,4.561,0,0,1-1.276.445,6.391,6.391,0,0,1-1.166.132,2.817,2.817,0,0,1-3-2.2,2.314,2.314,0,0,1-.074-.609,2.341,2.341,0,0,1,.48-1.427c.425-.549,1.314-1.221,3.312-1.3.274,0,.549-.016.823-.016a5.009,5.009,0,0,1,.7.036,1.111,1.111,0,0,0-.37-.722,2,2,0,0,0-.925-.222,3.082,3.082,0,0,0-1.795.628,1.062,1.062,0,0,1-.683.241,1.076,1.076,0,0,1-.823-.39,1.1,1.1,0,0,1,.148-1.517,4.83,4.83,0,0,1,2.645-1.1,4.061,4.061,0,0,1,.483-.019,4.245,4.245,0,0,1,2.017.48,3.58,3.58,0,0,1,1.534,2.98v4.1Zm-2.313-2.294a4.328,4.328,0,0,0-.628-.038c-.241,0-.5,0-.944.019a2.3,2.3,0,0,0-1.463.425.3.3,0,0,0-.055.148.9.9,0,0,1,.019.093c.055.222.129.549.906.549a3.71,3.71,0,0,0,.7-.074.143.143,0,0,1,.074-.019,1.858,1.858,0,0,0,1.3-.881Z" transform="translate(-146.744 -34.522)"/><path class="a" d="M237.985,33.028V43.834a1.084,1.084,0,0,1-2.165,0V33.028a1.084,1.084,0,0,1,2.165,0Z" transform="translate(-171.109 -23.218)"/><path class="a" d="M256.456,42.942a1.037,1.037,0,0,1,.313.777,1.073,1.073,0,0,1-1.83.749l-3.018-3.018v2.258a1.1,1.1,0,0,1-1.1,1.073,1.073,1.073,0,0,1-1.073-1.073v-10.8a1.073,1.073,0,0,1,1.073-1.073,1.1,1.1,0,0,1,1.1,1.073v6.569l3.018-3.018a1.062,1.062,0,0,1,.757-.3,1.1,1.1,0,0,1,.76.3,1.158,1.158,0,0,1,.313.777,1.076,1.076,0,0,1-.313.757l-2.47,2.47Z" transform="translate(-181.217 -23.103)"/><path class="a" d="M282.473,36.021a1.084,1.084,0,1,1,.984-.525A1.084,1.084,0,0,1,282.473,36.021Zm-1.073,9.16V38.705a1.085,1.085,0,1,1,2.171,0v6.476a1.1,1.1,0,0,1-1.1,1.073A1.076,1.076,0,0,1,281.4,45.181Z" transform="translate(-204.182 -24.565)"/><path class="a" d="M302.908,48.642v6.476a1.056,1.056,0,0,1-.7,1,.927.927,0,0,1-.39.074,1.076,1.076,0,0,1-.823-.387l-3.469-4.182v3.5a1.084,1.084,0,0,1-2.165,0V48.642a1.062,1.062,0,0,1,.7-1.018.982.982,0,0,1,.39-.074,1.076,1.076,0,0,1,.823.39l3.5,4.182V48.642a1.073,1.073,0,0,1,2.146,0Z" transform="translate(-214.311 -34.502)"/><path class="a" d="M337.027,56.151a4.492,4.492,0,0,1-1,2.851,3.973,3.973,0,0,1-3.054,1.46h-.258a4.067,4.067,0,0,1-3.073-1.885,1.078,1.078,0,0,1,.335-1.482,1.013,1.013,0,0,1,.593-.184,1.056,1.056,0,0,1,.886.5,1.847,1.847,0,0,0,1.408.886h.11a1.847,1.847,0,0,0,1.388-.664,2.373,2.373,0,0,0,.519-1.482v-.488a3.877,3.877,0,0,1-1.888.488,4.329,4.329,0,0,1,0-8.641,3.866,3.866,0,0,1,2.017.574,1.07,1.07,0,0,1,2.017.5Zm-2.146-4.33a1.906,1.906,0,1,0-1.888,2.165,2.01,2.01,0,0,0,1.888-2.154Z" transform="translate(-238.677 -34.473)"/><path class="a" d="M362.005,31.836a1.084,1.084,0,1,1,0,2.165h-2.149v9.714a1.1,1.1,0,0,1-1.1,1.073,1.076,1.076,0,0,1-1.076-1.073V34h-2.165a1.084,1.084,0,0,1,0-2.165Z" transform="translate(-257.215 -23.099)"/><path class="a" d="M391.92,48.627a1.073,1.073,0,0,1-1.073,1.073c-.351,0-.823.055-1,.332a.615.615,0,0,0-.074.206V55.1a1.084,1.084,0,0,1-2.165,0V48.627a1.076,1.076,0,0,1,1.073-1.1,1.023,1.023,0,0,1,.7.274,3.809,3.809,0,0,1,1.463-.274,1.076,1.076,0,0,1,1.073,1.1Z" transform="translate(-281.247 -34.487)"/><path class="a" d="M409.983,56.187a3.721,3.721,0,0,1-2.774-1.372,4.7,4.7,0,0,1-.925-2.944,4.073,4.073,0,0,1,3.773-4.311,3.567,3.567,0,0,1,2.7,1.218,4.242,4.242,0,0,1,1.073,2.906,1.1,1.1,0,0,1-1.073,1.1h-4.2a1.6,1.6,0,0,0,1.537,1.257h.11a2.075,2.075,0,0,0,1.26-.332,1.128,1.128,0,0,1,.593-.167,1.073,1.073,0,0,1,.906.483.919.919,0,0,1,.184.574,1.122,1.122,0,0,1-.5.925,4.212,4.212,0,0,1-2.327.667A1.82,1.82,0,0,1,409.983,56.187Zm1.463-5.57a1.534,1.534,0,0,0-1.4-.914,1.57,1.57,0,0,0-1.3.908Z" transform="translate(-294.796 -34.509)"/><path class="a" d="M443.563,56.187a3.721,3.721,0,0,1-2.774-1.372,4.7,4.7,0,0,1-.925-2.944,4.073,4.073,0,0,1,3.773-4.311,3.567,3.567,0,0,1,2.7,1.218,4.242,4.242,0,0,1,1.073,2.906,1.1,1.1,0,0,1-1.073,1.1h-4.2a1.6,1.6,0,0,0,1.537,1.257h.11a2.075,2.075,0,0,0,1.26-.332,1.128,1.128,0,0,1,.593-.167,1.073,1.073,0,0,1,.906.483.919.919,0,0,1,.184.574,1.122,1.122,0,0,1-.5.925,4.207,4.207,0,0,1-2.33.667A1.819,1.819,0,0,1,443.563,56.187Zm1.463-5.57a1.534,1.534,0,0,0-1.388-.908,1.57,1.57,0,0,0-1.3.908Z" transform="translate(-319.161 -34.509)"/><path class="a" d="M47.315,70.062h0a.969.969,0,0,0,.966-.966v-2.8a.969.969,0,0,0-1.921,0v2.8A.969.969,0,0,0,47.315,70.062Z" transform="translate(-33.639 -47.49)"/><path class="a" d="M70.11,69.464h0a.969.969,0,0,0,.966-.966v-2.8a.966.966,0,1,0-1.921,0v2.8A.969.969,0,0,0,70.11,69.464Z" transform="translate(-50.175 -46.892)"/><path class="a" d="M58.686,77.575h0a.969.969,0,0,1-.966-.966V71.922a.969.969,0,0,1,1.921,0v4.687A.969.969,0,0,1,58.686,77.575Z" transform="translate(-41.881 -51.575)"/><path class="a" d="M6.22,39.755A7.261,7.261,0,0,0,8.053,40a5.642,5.642,0,0,0,3.611-1.229l.167-.134-.074-.195A6.487,6.487,0,0,0,8.078,34.6,8.444,8.444,0,0,0,1.3,35l-.252.121.1.261A7.51,7.51,0,0,0,6.22,39.755Z" transform="translate(-0.762 -24.72)"/><path class="a" d="M35.423.189,35.124,0l-.14.324a9.02,9.02,0,0,0-.033,7.738,5.189,5.189,0,0,0,3.639,2.777l.187.036.113-.156a5.839,5.839,0,0,0,1.035-4.635A9.294,9.294,0,0,0,35.423.189Z" transform="translate(-24.741)"/><path class="a" d="M6.723,65.971C3.746,66.344,1.962,68.328.25,70.5L0,70.823l.376.148a11.16,11.16,0,0,0,4.19.892,9.178,9.178,0,0,0,1.227-.082,6.258,6.258,0,0,0,5.367-4.231l.077-.209-.178-.137a5.763,5.763,0,0,0-4.336-1.232Z" transform="translate(0 -47.836)"/><path class="a" d="M71.544.324,71.4,0l-.3.189a9.34,9.34,0,0,0-4.5,5.894,5.839,5.839,0,0,0,1.035,4.635l.113.156.187-.036a5.189,5.189,0,0,0,3.63-2.777A9.018,9.018,0,0,0,71.544.324Z" transform="translate(-48.244)"/><path class="a" d="M92.532,70.5c-1.712-2.176-3.493-4.16-6.468-4.533A5.763,5.763,0,0,0,81.728,67.2l-.178.137.08.209A6.255,6.255,0,0,0,87,71.78a9.139,9.139,0,0,0,1.224.082,11.174,11.174,0,0,0,4.193-.892l.376-.148Z" transform="translate(-59.172 -47.836)"/><path class="a" d="M81.8,38.4l-.074.2.167.134a5.636,5.636,0,0,0,3.611,1.229,7.277,7.277,0,0,0,1.833-.244,7.5,7.5,0,0,0,5.068-4.39l.1-.261-.252-.121a8.384,8.384,0,0,0-6.778-.4A6.473,6.473,0,0,0,81.8,38.4Z" transform="translate(-59.303 -24.675)"/><rect class="b" width="160" height="40" transform="translate(-16 -7)"/></g></svg>