<svg xmlns="http://www.w3.org/2000/svg" viewBox="0 0 20 20">
    <defs>
        <style>
            .cls-1{clip-path:url(#clip-path)}.cls-2{fill:#fff}
        </style>
        <clipPath id="clip-path">
            <path id="Path_573" d="M0 0h20v20H0z" data-name="Path 573"/>
        </clipPath>
    </defs>
    <g id="baseline-unarchive-24px" class="cls-1">
        <path id="Path_572" d="M17.625 4.85l-1.158-1.4A1.258 1.258 0 0 0 15.5 3h-10a1.21 1.21 0 0 0-.958.458L3.383 4.85A1.654 1.654 0 0 0 3 5.917v10.416A1.666 1.666 0 0 0 4.667 18h11.666A1.672 1.672 0 0 0 18 16.333V5.917a1.694 1.694 0 0 0-.375-1.067zM10.5 8.417L15.083 13h-2.916v1.667H8.833V13H5.917zm-5.733-3.75l.683-.833h10l.775.833z" class="cls-2" data-name="Path 572" transform="translate(-.5 -.5)"/>
    </g>
</svg>
