<svg xmlns="http://www.w3.org/2000/svg" viewBox="0 0 24 24">
    <defs>
        <style>
            .cls-1{fill:none}.cls-2{fill:#64afde}.cls-3{fill:#fff}.cls-4{fill:#6bc687}
        </style>
    </defs>
    <g id="ic_workspace_active" transform="translate(-1339 -838)">
        <path id="Path_577" d="M0 0h24v24H0z" class="cls-1" data-name="Path 577" transform="translate(1339 838)"/>
        <g id="Group_237" data-name="Group 237" transform="translate(1341.167 840.333)">
            <path id="Path_578" d="M17.667 2h-15A1.672 1.672 0 0 0 1 3.667v10a1.672 1.672 0 0 0 1.667 1.667H8.5V17H6.833v1.667H13.5V17h-1.667v-1.667h5.833a1.672 1.672 0 0 0 1.667-1.667v-10A1.672 1.672 0 0 0 17.667 2zm0 11.667h-15v-10h15z" class="cls-2" data-name="Path 578" transform="translate(-.167 -.333)"/>
            <path id="Path_580" d="M18 14H3V4h15z" class="cls-3" data-name="Path 580" transform="translate(-.5 -.667)"/>
            <path id="Path_579" d="M12.956 7.4l-4.167 4.44-2.083-2.222-1.042 1.111 3.125 3.333L14 8.507z" class="cls-4" data-name="Path 579" transform="translate(.169 -2.396)"/>
        </g>
    </g>
</svg>
