<svg xmlns="http://www.w3.org/2000/svg" viewBox="0 0 48 48"><defs><style>.a{fill:none;}.b{fill:#8587c1;}.c{fill:#6f6e8e;}.d{fill:#fff;}</style></defs><path class="a" d="M0,0H48V48H0Z"/><path class="b" d="M28,40H4a4,4,0,0,1-4-4V11.417A7.995,7.995,0,0,0,8.656,9.656,8,8,0,0,0,9.93,0H20L32,12V36A4,4,0,0,1,28,40Zm-9.2-9.44v3.68h3.66V30.56Zm-4.64,0v3.68H17.84V30.56Zm-4.62,0v3.68H13.2V30.56Zm9.26-4.94V29.3h3.66V25.62Zm-4.64,0V29.3H17.84V25.62Zm-4.62,0V29.3H13.2V25.62ZM18.8,20.7v3.66h3.66V20.7Zm-4.64,0v3.66H17.84V20.7Zm-4.62,0v3.66H13.2V20.7ZM18,3h0V14H29Z" transform="translate(8 4)"/><g transform="translate(5 2)"><path class="c" d="M8.93,1.69a6,6,0,1,0,6,6,6,6,0,0,0-6-6Z" transform="translate(-2.93 -1.69)"/><path class="d" d="M3,7.682V8.868H4.187l3.56-3.56L6.56,4.122Zm5.933-3.56a.5.5,0,0,0,0-.593L8.34,2.936a.5.5,0,0,0-.593,0l-.593.593L8.34,4.715Z" transform="translate(0 0.161)"/></g></svg>