<svg xmlns="http://www.w3.org/2000/svg" viewBox="0 0 48 48"><defs><style>.a{fill:none;}.b{fill:#64afde;}.c{fill:#6f6e8e;}.d{fill:#fff;}</style></defs><path class="a" d="M0,0H48V48H0Z"/><path class="b" d="M28,40H4a4,4,0,0,1-4-4V11.792a8.024,8.024,0,0,0,6.114-.047A7.993,7.993,0,0,0,11,4.373,7.966,7.966,0,0,0,9.7,0H20L32,12V36A4,4,0,0,1,28,40ZM7.78,29.8v3.52H24.22V29.8Zm0-5.8v3.439H24.22V24ZM18,3h0V14H29Z" transform="translate(8 4)"/><g transform="translate(5 2)"><path class="c" d="M8.93,1.69a6,6,0,1,0,6,6,6,6,0,0,0-6-6Z" transform="translate(-2.93 -1.69)"/><path class="d" d="M3,7.682V8.868H4.187l3.56-3.56L6.56,4.122Zm5.933-3.56a.5.5,0,0,0,0-.593L8.34,2.936a.5.5,0,0,0-.593,0l-.593.593L8.34,4.715Z" transform="translate(0 0.161)"/></g></svg>