<svg xmlns="http://www.w3.org/2000/svg" viewBox="0 0 48 48"><defs><style>.a{fill:none;}.b{fill:#f48892;}.c{fill:#6f6e8e;}.d{fill:#fff;}</style></defs><path class="a" d="M0,0H48V48H0Z"/><path class="b" d="M28,40H4a4,4,0,0,1-4-4V11.416A7.96,7.96,0,0,0,3,12,8,8,0,0,0,9.93,0H20L32,12V36A4,4,0,0,1,28,40ZM19.44,26.28v8h3.24v-8Zm-5.241-5.8v13.8h3.26v-13.8Zm-5.241,2.4v11.4h3.263v-11.4ZM18,3h0V14H29Z" transform="translate(8 4.002)"/><g transform="translate(5 2)"><path class="c" d="M8.93,1.69a6,6,0,1,0,6,6,6,6,0,0,0-6-6Z" transform="translate(-2.93 -1.69)"/><path class="d" d="M3,7.682V8.868H4.187l3.56-3.56L6.56,4.122Zm5.933-3.56a.5.5,0,0,0,0-.593L8.34,2.936a.5.5,0,0,0-.593,0l-.593.593L8.34,4.715Z" transform="translate(0 0.161)"/></g></svg>